HIERARCHY
ROOT Hips
{
	OFFSET 0.00000 0.00000 0.00000
	CHANNELS 6 Xposition Yposition Zposition Zrotation Yrotation Xrotation 
	JOINT LHipJoint
	{
		OFFSET 0 0 0
		CHANNELS 3 Zrotation Yrotation Xrotation
		JOINT LeftHip
		{
			OFFSET 1.33213 -1.58186 0.78596
			CHANNELS 3 Zrotation Yrotation Xrotation
			JOINT LeftKnee
			{
				OFFSET 2.29717 -6.31144 0.00000
				CHANNELS 3 Zrotation Yrotation Xrotation
				JOINT LeftAnkle
				{
					OFFSET 2.38430 -6.55082 0.00000
					CHANNELS 3 Zrotation Yrotation Xrotation
					JOINT LeftToe
					{
						OFFSET 0.11863 -0.32594 1.77568
						CHANNELS 3 Zrotation Yrotation Xrotation
						End Site
						{
							OFFSET 0.00000 -0.00000 0.91633
						}
					}
				}
			}
		}
	}
	JOINT RHipJoint
	{
		OFFSET 0 0 0
		CHANNELS 3 Zrotation Yrotation Xrotation
		JOINT RightHip
		{
			OFFSET -1.41575 -1.58186 0.78596
			CHANNELS 3 Zrotation Yrotation Xrotation
			JOINT RightKnee
			{
				OFFSET -2.42012 -6.64922 0.00000
				CHANNELS 3 Zrotation Yrotation Xrotation
				JOINT RightAnkle
				{
					OFFSET -2.47254 -6.79327 0.00000
					CHANNELS 3 Zrotation Yrotation Xrotation
					JOINT RightToe
					{
						OFFSET -0.15219 -0.41813 1.93430
						CHANNELS 3 Zrotation Yrotation Xrotation
						End Site
						{
							OFFSET -0.00000 -0.00000 0.99984
						}
					}
				}
			}
		}
	}
	JOINT lowerback
	{
		OFFSET 0 0 0
		CHANNELS 3 Zrotation Yrotation Xrotation
		JOINT Chest
		{
			OFFSET -0.04717 2.09389 -0.14516
			CHANNELS 3 Zrotation Yrotation Xrotation
			JOINT Chest2
			{
				OFFSET 0.02825 2.09433 -0.11325
				CHANNELS 3 Zrotation Yrotation Xrotation
				JOINT lowerneck
				{
					OFFSET 0 0 0
					CHANNELS 3 Zrotation Yrotation Xrotation
					JOINT Neck
					{
						OFFSET -0.01210 1.39029 0.12448
						CHANNELS 3 Zrotation Yrotation Xrotation
						JOINT Head
						{
							OFFSET 0.09492 1.38365 0.14559
							CHANNELS 3 Zrotation Yrotation Xrotation
							End Site
							{
								OFFSET 0.03402 1.40343 0.03708
							}
						}
					}
				}
				JOINT LeftCollar
				{
					OFFSET 0 0 0
					CHANNELS 3 Zrotation Yrotation Xrotation
					JOINT LeftShoulder
					{
						OFFSET 2.83352 1.10671 -0.20481
CHANNELS 3 Zrotation Xrotation Yrotation
						JOINT LeftElbow
						{
OFFSET 0 -4.771950 -0.000000
CHANNELS 3 Zrotation Xrotation Yrotation
							JOINT LeftWrist
							{
OFFSET 0 -2.984440 0.000000
CHANNELS 3 Zrotation Xrotation Yrotation
								JOINT lhand
								{
									OFFSET 0 0 0
CHANNELS 3 Zrotation Xrotation Yrotation
									JOINT LFingers
									{
OFFSET 0 -0.992280 0.000000
CHANNELS 3 Zrotation Xrotation Yrotation
										End Site
										{
OFFSET 0 -0.800010 0.000000
										}
									}
								}
								JOINT LThumb
								{
OFFSET 0 0.000000 0.000000
CHANNELS 3 Zrotation Xrotation Yrotation
									End Site
									{
OFFSET 0 -0.812220 0.812220
									}
								}
							}
						}
					}
				}
				JOINT RightCollar
				{
					OFFSET 0 0 0
					CHANNELS 3 Zrotation Yrotation Xrotation
					JOINT RightShoulder
					{
						OFFSET -3.23760 1.11106 0.06723
CHANNELS 3 Zrotation Xrotation Yrotation
						JOINT RightElbow
						{
OFFSET 0 -4.620520 0.000000
CHANNELS 3 Zrotation Xrotation Yrotation
							JOINT RightWrist
							{
OFFSET 0 -2.953320 0.000000
CHANNELS 3 Zrotation Xrotation Yrotation
								JOINT rhand
								{
									OFFSET 0 0 0
CHANNELS 3 Zrotation Xrotation Yrotation
									JOINT RFingers
									{
OFFSET 0 -0.990960 0.000000
CHANNELS 3 Zrotation Xrotation Yrotation
										End Site
										{
OFFSET 0 -0.798930 0.000000
										}
									}
								}
								JOINT RThumb
								{
OFFSET 0 0.000000 0.000000
CHANNELS 3 Zrotation Xrotation Yrotation
									End Site
									{
OFFSET 0 -0.811130 0.811130
									}
								}
							}
						}
					}
				}
			}
		}
	}
}
MOTION
Frames: 4
Frame Time: 0.008333333333333333
11.187100 16.076400 32.392900 -179.720000 -30.621900 -169.946000 0.000000 0.000000 0.000000 -15.796100 -15.063300 -5.502100 0.787800 5.665900 15.818100 -0.297700 -14.190800 -5.957900 0.022000 -0.957500 -2.631800 0.000000 0.000000 0.000000 15.250300 -0.762500 -32.177900 -2.472300 -9.787400 28.290900 -1.185900 0.346400 -20.483500 -0.890700 -6.015600 16.829600 0.219000 3.909800 -8.523200 0.598500 5.150300 1.532600 1.214900 2.524800 6.341700 -1.707000 9.306200 -1.599900 4.015500 12.429200 -1.617000 1.471600 6.190200 -0.613800 -0.000000 0.000000 0.000000 -1.635200 -7.666100 -17.005300 11.630900 -19.248700 1.978900 -15.462700 3.920600 -15.585500 0.000000 0.000000 0.000000 -7.125000 0.000000 0.000000 -37.621800 42.223900 -3.068600 -0.000000 0.000000 0.000000 1.821500 3.819000 -2.144500 -20.780100 -31.570800 -5.934400 0.519500 24.098200 4.446200 0.000000 0.000000 0.000000 7.125000 0.000000 -0.000000 21.953700 33.727700 6.480100
11.139424 16.068336 32.499906 -179.611292 -30.127767 -170.183891 0.000000 0.000000 0.000000 -16.032304 -14.407636 -6.135047 0.854959 5.896688 16.484954 -0.362298 -14.856756 -5.692509 0.004510 -0.417044 -1.145974 0.000000 0.000000 0.000000 14.786007 0.234985 -31.771780 -2.415420 -9.682378 27.954152 -1.292321 0.659590 -21.291928 -2.148976 -9.129038 26.231013 0.132103 3.957724 -8.439694 0.783044 5.211270 1.688774 1.464060 2.546350 6.433420 -1.473687 9.182893 -1.039278 3.663468 12.268919 -2.046965 1.288472 6.100272 -0.795990 0.000000 0.000000 0.000000 -1.525528 -4.844258 -26.341099 9.717943 -16.297107 1.394795 5.264296 31.492150 -8.876115 0.000000 0.000000 0.000000 -7.125000 0.000000 0.000000 -18.469922 38.249685 -3.200786 0.000000 0.000000 0.000000 1.789075 3.970450 -3.106051 -19.854992 -30.466383 -5.458060 -2.772950 24.988082 5.377009 0.000000 0.000000 0.000000 7.125000 0.000000 0.000000 19.606283 34.778227 5.183664
11.087591 16.062607 32.615064 -179.915230 -29.570095 -170.118659 0.000000 0.000000 0.000000 -16.700121 -13.958506 -6.560777 0.875160 5.964137 16.680395 -0.390969 -15.080862 -5.504268 0.001058 -0.194602 -0.534595 0.000000 0.000000 0.000000 13.972030 0.966879 -31.757739 -2.395195 -9.644741 27.833744 -1.382648 1.027749 -21.926696 -3.310963 -11.171609 32.873124 -0.113094 4.033918 -8.449186 0.713009 5.346523 1.837166 1.553636 2.603375 6.577506 -2.008870 9.263311 -1.446831 4.052659 12.380065 -1.663858 1.521601 6.166203 -0.674462 0.000000 0.000000 0.000000 -1.348143 -4.783452 -26.164528 9.780518 -16.395457 1.412411 4.262480 32.277315 -9.295183 0.000000 0.000000 0.000000 -7.125000 0.000000 0.000000 -19.408740 38.572307 -3.216751 0.000000 0.000000 0.000000 2.029049 4.100861 -4.232156 -19.180586 -29.641311 -5.120383 -5.902895 26.747939 7.222480 0.000000 0.000000 0.000000 7.125000 0.000000 0.000000 17.518764 36.727916 3.756711
11.027980 16.058002 32.726442 -180.357968 -28.933512 -170.179351 0.000000 0.000000 0.000000 -17.600431 -13.370384 -6.711174 0.889509 6.011676 16.818246 -0.401738 -15.214278 -5.494947 0.001519 -0.235517 -0.647000 0.000000 0.000000 0.000000 13.112794 1.301715 -31.678047 -2.372396 -9.602073 27.697418 -1.398928 1.163436 -22.019371 -3.908683 -12.032634 35.854852 -0.081091 4.223516 -8.049290 0.311767 5.626369 1.823767 1.124516 2.753805 6.379279 -2.008766 9.267432 -1.576241 4.366582 12.375204 -1.240524 1.637262 6.168557 -0.542778 0.000000 0.000000 0.000000 -0.570835 -4.348102 -27.398251 9.901456 -16.585169 1.446767 4.406388 31.088699 -9.803705 0.000000 0.000000 0.000000 -7.125000 0.000000 0.000000 -19.430794 39.064233 -2.975227 0.000000 0.000000 0.000000 2.835790 4.632451 -5.495233 -18.626148 -28.950683 -4.848955 -8.948878 28.327369 9.274461 0.000000 0.000000 0.000000 7.125000 0.000000 0.000000 15.506013 38.907388 2.394624
